<svg xmlns="http://www.w3.org/2000/svg" viewBox="0 0 49.65 49.65">
  <g fill="#364e59">
    <path d="M24.82 29.8c2.74 0 4.98-2.23 4.98-4.97 0-1.1-.36-2.08-.94-2.9-.9-1.25-2.37-2.07-4.03-2.07-1.66 0-3.13.82-4.03 2.07-.6.8-.94 1.8-.94 2.9 0 2.74 2.23 4.97 4.96 4.97zM35.68 13.96H30.9v4.8h4.78v-4.18"/>
    <path d="M24.83 0C11.13 0 0 11.14 0 24.83 0 38.5 11.14 49.65 24.83 49.65c13.68 0 24.82-11.14 24.82-24.82C49.65 11.13 38.52 0 24.83 0zm14.12 21.93V33.5c0 3-2.45 5.45-5.46 5.45H16.15c-3 0-5.45-2.45-5.45-5.46V16.15c0-3 2.45-5.45 5.46-5.45H33.5c3 0 5.44 2.45 5.44 5.46v5.77z"/>
    <path d="M32.55 24.83c0 4.25-3.46 7.72-7.72 7.72s-7.73-3.47-7.73-7.72c0-1.03.2-2 .57-2.9h-4.2V33.5c0 1.48 1.2 2.7 2.7 2.7h17.32c1.48 0 2.7-1.22 2.7-2.7V21.92h-4.22c.36.9.57 1.87.57 2.9z"/>
  </g>
</svg>
