<svg
   xmlns="http://www.w3.org/2000/svg"
   viewBox="0 0 49.65 49.65">
  <circle
     r="24.825001"
     style="fill:#364e59"
     id="circle4"
     cy="24.891731"
     cx="24.825001" />
  <path
     style="fill:#f1f2f2"
     id="path6"
     d="m 39.65805,26.883043 0,10.23976 -5.92968,0 0,-9.549439 c 0,-2.398423 -0.862901,-4.035722 -3.009091,-4.035722 -1.6373,0 -2.610829,1.106283 -3.044492,2.168316 -0.159305,0.384986 -0.199131,0.916003 -0.199131,1.447018 l 0,9.974252 -5.93853,0 c 0,0 0.07965,-16.173865 0,-17.846564 l 5.929679,0 0,2.531176 c 0,0.02213 -0.02213,0.04425 -0.03098,0.06196 l 0.04425,0 0,-0.06196 c 0.787674,-1.212487 2.190441,-2.947139 5.345562,-2.947139 3.902968,0 6.832407,2.553302 6.832407,8.031618 z M 15.337514,10.678203 c -2.035561,0 -3.363102,1.32754 -3.363102,3.084318 0,1.712527 1.292139,3.084319 3.28345,3.084319 l 0.04425,0 c 2.062113,0 3.349826,-1.371792 3.349826,-3.079894 -0.04425,-1.752352 -1.283288,-3.084318 -3.31885,-3.084318 z m -3.009091,26.449025 5.929679,0 0,-17.855416 -5.929679,0 0,17.850991 z" />
</svg>
