<svg xmlns="http://www.w3.org/2000/svg" viewBox="0 0 566.4 446.6">
  <defs>
    <clipPath id="a"/>
  </defs>
  <path fill="#364e59" d="M552.6 446.6H322.85c-7.6 0-13.8-6-13.8-13.4V13.4c0-7.4 6.2-13.4 13.8-13.4H552.6c7.62 0 13.8 6 13.8 13.4v419.8c0 7.4-6.18 13.4-13.8 13.4z"/>
  <path fill="#fff" d="M322.84 35.73H552.6V393H322.85z"/>
  <path fill="#ffd24d" d="M239.36 180.9l.05 81.5 160-.1v22.45l56.4-63.24-56.47-63.16v22.46z"/>
  <path fill="#364e59" d="M0 110.54h355.25v234.6H0z"/>
  <path fill="#fff" d="M21.25 134.9H334v185.87H21.24z"/>
  <path fill="#bdcdd4" d="M170.9 170.76h144.23v25.9H170.9zM170.9 216.16h128.66v25.9H170.9zM170.9 261.56h104.3v25.9H170.9z"/>
  <ellipse cx="92.03" cy="229" fill="#bdcdd4" rx="52.84" ry="52.3"/>
  <ellipse cx="217.52" cy="832.01" fill="#9eabb0" transform="matrix(.4655 0 0 .4655 -9.255 -158.373)" clip-path="url(#a)" rx="113.51" ry="112.36"/>
</svg>
