<svg xmlns="http://www.w3.org/2000/svg" viewBox="0 0 49.65 49.65">
  <path fill="#364e59" d="M24.83 0C11.13 0 0 11.14 0 24.83 0 38.5 11.14 49.65 24.83 49.65c13.68 0 24.82-11.14 24.82-24.82C49.65 11.13 38.52 0 24.83 0zM35.9 19.14l.02.75c0 7.54-5.75 16.24-16.26 16.24-3.23 0-6.23-.94-8.76-2.56.45.05.9.08 1.36.08 2.68 0 5.14-.92 7.1-2.45-2.5-.04-4.6-1.7-5.34-3.96.35.07.7.1 1.08.1.52 0 1.02-.06 1.5-.2-2.6-.52-4.58-2.83-4.58-5.6v-.07c.77.43 1.65.68 2.6.7-1.54-1-2.55-2.76-2.55-4.74 0-1.05.28-2.03.77-2.88 2.82 3.46 7.03 5.74 11.78 5.98-.1-.42-.15-.86-.15-1.3 0-3.16 2.56-5.72 5.7-5.72 1.66 0 3.14.7 4.18 1.8 1.3-.24 2.53-.72 3.63-1.37-.43 1.33-1.33 2.45-2.5 3.16 1.14-.15 2.25-.46 3.27-.9-.76 1.13-1.73 2.14-2.85 2.94z"/>
</svg>
